<?xml version="1.0" encoding="utf-8"?>
<!-- Generator: Adobe Illustrator 14.0.0, SVG Export Plug-In . SVG Version: 6.00 Build 43363)  -->
<!DOCTYPE svg PUBLIC "-//W3C//DTD SVG 1.1//EN" "http://www.w3.org/Graphics/SVG/1.1/DTD/svg11.dtd">
<svg version="1.1" id="Layer_1" xmlns="http://www.w3.org/2000/svg" xmlns:xlink="http://www.w3.org/1999/xlink" x="0px" y="0px"
	 width="64.125px" height="23px" viewBox="0 0 64.125 23" enable-background="new 0 0 64.125 23" xml:space="preserve">
<path fill="#FFFFFF" d="M3.112,12.997c0.628,2.995,2.148,5.487,4.393,7.207c2.024,1.554,4.592,2.409,7.228,2.409
	c3.44,0,6.701-1.427,8.944-3.91c1.722-1.906,3.656-5.322,3.098-10.77c-0.035-0.341-0.084-0.675-0.151-1.001
	c0.39-0.521,0.683-0.853,0.684-0.855c0.593-0.661,0.76-1.602,0.431-2.426c-0.33-0.825-1.097-1.392-1.983-1.463
	c-0.375-0.031-0.753-0.046-1.124-0.046c-0.244,0-0.487,0.006-0.729,0.02c-1.423-1.227-3.243-1.912-5.151-1.912
	c-2.133,0-4.073,0.875-5.321,2.401c-1.25,1.529-1.708,3.601-1.296,5.85c-1.175-0.282-2.276-0.727-2.736-0.943
	c-0.32-0.152-0.662-0.226-1.002-0.226c-0.515,0-1.027,0.17-1.447,0.501c-0.698,0.549-1.023,1.447-0.84,2.316
	c0.011,0.051,0.021,0.101,0.032,0.151c-0.24-0.08-0.491-0.12-0.74-0.12c-0.516,0-1.026,0.17-1.447,0.502
	C3.256,11.23,2.93,12.128,3.112,12.997z M5.4,12.518c0,0,2.515,1.194,4.927,1.395c-0.894-1.136-1.576-2.545-1.933-4.244
	c0,0,3,1.423,5.588,1.423c0.219,0,0.435-0.01,0.646-0.032c0.104-0.758,0.062-1.695-0.171-2.852
	c-0.743-3.683,1.656-5.621,4.294-5.621c1.537,0,3.153,0.657,4.279,2.011c0.514-0.078,1.047-0.119,1.602-0.119
	c0.305,0,0.616,0.013,0.934,0.039c0,0-0.724,0.81-1.483,1.966c0.177,0.512,0.303,1.074,0.366,1.688
	c0.818,7.989-4.468,12.104-9.716,12.104C10.601,20.274,6.493,17.729,5.4,12.518z"/>
<g>
	<path fill="#FFFFFF" d="M57.762,7.256h-4.113V3.667c0-1.322-1.072-2.394-2.393-2.394h-2.141c-0.877,0-1.684,0.48-2.104,1.251
		L44.346,7.43c-0.275-0.11-0.575-0.173-0.891-0.173h-3.741c-1.322,0-2.394,1.071-2.394,2.394v10.181
		c0,1.322,1.071,2.396,2.394,2.396h3.741c1.063,0,1.963-0.694,2.276-1.652l3.745,1.483c0.281,0.11,0.58,0.169,0.881,0.169h7.405
		c1.321,0,2.394-1.073,2.394-2.396V9.65C60.155,8.328,59.083,7.256,57.762,7.256z M39.714,19.832V9.651h3.721
		c-0.001,0.025-0.004,0.049-0.004,0.074v8.313c0,0.111,0.01,0.22,0.024,0.329v1.465H39.714z M57.762,19.832h-7.405l-4.509-1.783
		v-8.37l3.267-6.012h2.141V9.65h6.506V19.832z"/>
	<circle fill="#FFFFFF" cx="41.631" cy="17.803" r="1.197"/>
</g>
</svg>
